<?xml version='1.0' encoding='UTF-8'?>
<svg viewBox="-4 -4 32 32" xmlns="http://www.w3.org/2000/svg" xmlns:xlink="http://www.w3.org/1999/xlink">
  <g id="Layer_1" transform="translate(-4, -4)" style="enable-background:new 0 0 32 32">
    <g id="Forbid">
      <path d="M16, 4C9.4, 4 4, 9.4 4, 16C4, 22.6 9.4, 28 16, 28C22.6, 28 28, 22.6 28, 16C28, 9.4 22.6, 4 16, 4zM16, 8C17.5, 8 18.9, 8.4 20.1, 9.1L9.1, 20.1C8.4, 18.9 8, 17.5 8, 16C8, 11.6 11.6, 8 16, 8zM16, 24C14.5, 24 13.2, 23.6 12, 22.9L22.9, 12C23.6, 13.2 24, 14.5 24, 16C24, 20.4 20.4, 24 16, 24z" fill="#D11C1C" class="Red" />
    </g>
  </g>
</svg>