<?xml version="1.0" encoding="iso-8859-1"?>
<!-- Uploaded to: SVG Repo, www.svgrepo.com, Generator: SVG Repo Mixer Tools -->
<svg height="800px" width="800px" version="1.1" id="Layer_1" xmlns="http://www.w3.org/2000/svg" xmlns:xlink="http://www.w3.org/1999/xlink" 
	 viewBox="0 0 496 496" xml:space="preserve">
<path style="fill:#1A6000;" d="M24,343.2C59.2,431.2,146.4,496,248,496s188.8-64.8,224-152.8H24z"/>
<circle style="fill:#34B515;" cx="248" cy="411.2" r="56"/>
<path style="fill:#239B02;" d="M288,371.2c21.6,21.6,21.6,57.6,0,79.2s-57.6,21.6-79.2,0"/>
<path style="fill:#B9E256;" d="M256,372.8c0,8.8-2.4,16-8,16l0,0c-5.6,0-8-7.2-8-16v-296c0-8.8,2.4-16,8-16l0,0c5.6,0,8,7.2,8,16
	V372.8z"/>
<path style="fill:#86CC36;" d="M248,62.4L248,62.4c5.6,0,8,5.6,8,15.2v296c0,8.8-2.4,16-8,16l0,0"/>
<path style="fill:#239B02;" d="M275.2,177.6c33.6-33.6,87.2-57.6,120-48l0,0l0,0l0,0l0,0c9.6,32.8-14.4,86.4-48,120
	s-66.4,36.8-99.2,27.2l0,0l0,0l0,0l0,0C238.4,244,241.6,211.2,275.2,177.6z"/>
<path style="fill:#34B515;" d="M248,276.8L248,276.8C248,277.6,248,276.8,248,276.8L248,276.8L248,276.8
	c-10.4-32.8-7.2-66.4,26.4-100s87.2-57.6,120-48l0,0l0,0l0,0l0,0"/>
<path style="fill:#239B02;" d="M220.8,177.6c-33.6-33.6-87.2-57.6-120-48l0,0l0,0l0,0l0,0c-9.6,32.8,14.4,86.4,48,120
	s66.4,36.8,99.2,27.2l0,0l0,0l0,0l0,0C257.6,244,254.4,211.2,220.8,177.6z"/>
<path style="fill:#34B515;" d="M248,276.8L248,276.8C248,277.6,248,276.8,248,276.8L248,276.8L248,276.8
	c10.4-32.8,7.2-66.4-26.4-100s-87.2-57.6-120-48l0,0l0,0l0,0l0,0"/>
<polygon style="fill:#F2B630;" points="184,111.2 248,0 312,111.2 "/>
<polygon style="fill:#D38200;" points="247.2,78.4 248,0 312,111.2 "/>
</svg>