<svg xmlns="http://www.w3.org/2000/svg" width="173" height="156.723" viewBox="0 0 173 156.723">
  <g id="d828c42ce1b34bafb45efd483e8078e8" transform="translate(-10 -56.1)">
    <g id="Group_1" data-name="Group 1" transform="translate(10 56.1)">
      <path id="Path_1" data-name="Path 1" d="M11.287-453.576,10-452.289l.221,8.424c.883,29.541,6.143,47.6,17,58.347a20.643,20.643,0,0,0,6.842,4.893c5.555,2.759,9.822,3.753,16.885,3.974,8.02.258,14.054-.846,20.455-3.753l2.722-1.252.736,1.4c.367.81,1.361,3.054,2.171,5.077q10.486,26.432,11.294,63.57a95.423,95.423,0,0,0,.588,10.742,3.753,3.753,0,0,0,6.254,1.619l1.215-1.066.258-7.321a143.006,143.006,0,0,1,1.949-20.933q3.532-21.3,12.73-37.34l2.244-3.937,2.392,1.8c6.143,4.673,14.274,7.026,24.208,7.063,6.143,0,8.609-.33,13.905-2.023,15.415-4.855,24.464-20.49,27.664-47.861.7-5.776,1.4-19.24,1.252-23.251-.147-3.054-.184-3.238-1.361-4.267l-1.177-1.066H175c-23.434,0-43.557,4.231-54.779,11.478-5.85,3.788-9.27,7.467-11.882,12.693-2.648,5.335-3.753,10.521-3.825,17.621-.037,5.3.258,6.438,2.06,7.358,2.355,1.215,2.832.957,8.865-5.114a92.187,92.187,0,0,1,25.2-18.357c2.464-1.177,3.275-1.435,4.3-1.252a3.978,3.978,0,0,1,3.384,3.347c.258,2.171-.662,3.091-6.254,5.96a90.046,90.046,0,0,0-39.878,40.026,110.326,110.326,0,0,0-7.247,17.879c-.7,2.318-1.361,3.937-1.472,3.642s-.553-2.539-.957-4.966c-2.464-14.2-7.688-29.761-13.61-40.651-6.292-11.552-15.782-22.772-25.016-29.578-6.991-5.114-7.762-5.739-8.094-6.7a3.245,3.245,0,0,1,.883-4.046c1.765-1.765,3.458-1.728,6,.111,1.029.773,3.9,2.869,6.4,4.708a82.735,82.735,0,0,1,19.976,21.228,22.462,22.462,0,0,0,2.906,3.788c1.914,1.361,5.077.111,5.739-2.281.883-3.091,1.215-9.529.773-14.091-1.4-14.753-7.467-23.323-21.042-29.8C56.1-451.848,38.732-454.9,19.2-454.9H12.613Z" transform="translate(-10 454.9)" fill="#6a961f"/>
    </g>
  </g>
</svg>
